<?xml version="1.0" encoding="utf-8"?>
<svg version="1.1" id="Layer_1" xmlns="http://www.w3.org/2000/svg" xmlns:xlink="http://www.w3.org/1999/xlink" x="0px" y="0px"
	 viewBox="0 0 1766.151 1666.859" enable-background="new 0 0 1766.151 1666.859" xml:space="preserve">
<g>
	<path fill="#6A818B" stroke="#6A818B" d="M43.665,35.743c6.213-4.364,148.61-0.808,156.04-0.557
		c29.353,1.137,59.13-0.063,115.134,15.938c69.457,20.863,111.458,50.338,122.552,56.55
		c157.648-81.774,370.096-87.641,541.804-0.692c129.407-79.545,212.435-70.254,371.289-70.534
		c18.604,0.176,28.966-6.621,23.726,67.795c-5.253,62.682-24.558,188.618-25.324,192.946
		c-10.448,51.103-36.045,122.015-58.201,168.689c-32.917,68.38-48.11,66.509-56.953,69.474c6.419,15.856-4.209-3.604,58.288,53.3
		c58.832,55.533,56.588,62.37,37.765,75.979c-13.237,9.971-36.879,22.22-51.172,29.54c13.334,8.79,43.006,28.366,45.123,44.143
		c0.029,26.22-130.679,82.688-154.704,93.119c-145.011,61.199-202.625,62.825-237.814,66.654c1.4,1.268,31.51,28.024,36.556,30.547
		c35.84-10.493,107.051-26.903,167.803-47.258c11.856-4.142,23.74-8.587,36.281-10.091c56.326-7.891,133.719,31.947,139.162,98.282
		c43.171-42.407,73.618-51.597,132.838-63.848c28.719-5.204,68.697-17.743,146.446-3.216
		c71.854,13.859,128.289,40.539,135.805,44.895c4.424,2.323,5.962,8.594,3.337,12.79c-50.601,72.91-98.694,179.795-110.025,277.015
		c-6.082,49.737,1.432,44.069-10.735,87.735c-14.855,50.81-44.746,104.887-77,147.823
		c-61.013,81.59-120.541,114.286-187.367,134.798c-180.391,53.703-364.426,16.989-438.97-40.826
		c7.237,1.907,14.616,3.149,22.034,4.122c92.633,61.591,314.018,76.794,463.12,10.467c65.39-29.17,118.512-86.332,157.208-146.903
		c1.752-2.531,3.087,3.87-30.286-111.978c-90.149,39.569-111.263,61.215-114.308,38.671c-12.212-85.88-11.376-80.107-12.132-82.706
		c-5.432,3.503-70.363,45.771-74.818,45.862c-10.802,0.607-7.919-2.953-30.977-106.016c-1,0.419-91.173,42.415-92.327,46.654
		c-11.806,33.694-18.532,45.825-60.712,57.382c0.739-3.484,1.249-7.009,1.94-10.494c1.054,1,2.43,0.101,3.619-0.161
		c30.331-10.513,36.808-13.584,54.831-73.978c13.964-48.218,25.163-97.262,41.786-144.681
		c-33.935,21.61-125.787,35.228-160.68,44.774c-4.424-1.893-8.936-3.565-13.474-5.149c34.754-11.32,136.925-24.543,172.006-48.634
		c47.804-32.525,89.212-94.352,60.92-145.963c-19.164-34.088-64.668-60.476-110.427-58.859
		c-26.923,0.536-4.754,2.373-187.132,50.729c-33.918,8.984-26.992,9.489-32.367,6.425c-8.958-6.254-15.733-12.872-42.055-35.146
		c-4.033-3.178-1.719-1.942-23.827-1.101c-87.171,0.627-117.809-8.416-153.744-7.432c-10.473-0.074-20.92,3.323-31.367,1.249
		c-2.128-0.383-4.31-0.389-6.432,0c-8.849,1.779-17.785-0.45-26.62-1.074c-36.632-1.747-85.148,8.606-146.393,7.378
		c-40.431,0.256-28.091-3.88-41.659,1.927c-23.587,10.343-18.128,9.904-28.762,6.694c-33.634-11.984-43.232-19.255-71.112-26.949
		c-104.7-27.96-135.708-54.194-161.975-53.421c-139.325,6.826-218.35,153.334-30.071,228.71
		c44.672,17.392,87.43,26.752,134.382,34.797c12.101,1.441-4.306,19.541-17.113,54.536c-3.323,0.738-6.653,1.43-9.956,2.209
		c3.239-12.68,20.067-44.889,21.236-49.151C-2.079,1054.598,33.715,841.037,223.19,820.061
		c-21.336-9.235-81.093-37.461-112.589-60.41c-22.942-17.402-28.168-27.667,28.721-65.479
		c-41.086-20.932-61.059-33.539-62.881-43.465c-4.715-15.453,65.533-79.428,104.137-107.507c1.954-2.605,2.927-5.801,3.86-8.889
		c-15.91-4.123-22.014-3.238-39.087-26.942C51.316,370.694,32.562,85.189,36.266,52.809C37.387,46.734,38.2,39.617,43.665,35.743
		 M45.873,47.976c-8.711,40.249,23.19,245.378,35.999,288.589c15.532,52.199,60.926,176.449,92.408,186.212
		c4.095,1.282,8.258,2.37,12.454,3.276c20.146-102.585,9.022-168.13,73.603-260.889c0.873-1.276,1.934-2.477,2.451-3.954
		c3.888-4.197,63.091-92.948,165.332-148.769c-3.077-2.523-24.029-15.04-46.002-25.781
		c-81.158-39.583-135.174-40.118-164.802-42.135c-19.69-1.503-131.521-2.516-137.323-1.551c-9.278-1.02-18.678,0.114-27.976-0.846
		C48.337,41.316,46.672,45.116,45.873,47.976 M1354.848,45.075c-7.862,0.577-15.797-0.41-23.619,0.591
		c-6.786-1.103-121.358,0.221-139.176,1.645c-71.518,1.069-142.295,27.143-203.466,64.19c2.746,1.84,41.677,22.747,76.396,52.958
		c172.046,143.563,143.089,263.818,166.628,362.548c44.247-10.95,96.147-176.85,106.439-219.982
		c1.052-4.253,42.883-253.531,23.673-262.03C1359.441,44.572,1357.124,44.961,1354.848,45.075 M676.366,53.971
		c-128.899,5.81-244.453,48.173-338.694,135.503C206.896,312.391,217.57,392.1,197.677,514.036
		c-7.16,37.554-9.255,33.738-17.523,40.222c-24.059,18.162-58.067,48.02-80.739,73.643c-17.03,20.147-16.05,20.555-12.031,24.72
		c14.586,14.479,64.207,37.457,69.608,40.739c-71.356,45.91-60.523,46.636-28.56,67.936
		c61.519,38.781,204.076,101.683,300.399,120.532c62.965,12.723,129.133,10.93,192.261,5.237c75.641-6.583,57.457-0.771,79.45-1.235
		c3.699-0.074,7.338-1.692,11.051-0.799c6.358,1.524,12.904,0.504,19.315-0.101c63.215-10.089,167.081,43.127,393.29-44.566
		c26.384-10.391,204.484-84.076,189.025-105.781c-11.373-16.802-40.454-33.582-52.286-41.222
		c4.242-2.75,54.034-25.698,69.286-40.396c4.429-4.581,5.548-4.646-12.011-25.425c-24.123-27.143-58.422-56.778-81.203-73.851
		c-2.759-2.122-6.156-3.719-7.808-6.942c-14.258-25.859-15.913-129.939-38.604-200.411
		c-23.698-72.255-104.542-167.564-194.148-220.143C903.478,71.819,792.05,49.296,696.588,53.105
		C689.861,53.669,683.093,53.347,676.366,53.971 M446.83,893.596c22.128,8.79,22.773,8.694,23.773,8.137
		c2.927-1.363,6.009-2.471,8.728-4.23C468.475,896.396,457.66,894.932,446.83,893.596 M1409.008,922.472
		c-62.988,16.784-96.931,58.089-98.161,60.316c-1.639,7.402-2.844,29.104-23.364,58.456c-10.299,14.898-22.713,28.332-36.805,39.705
		c-12.462,10.729-35.439,111.438-53.106,169.709c35.899-17.197,88.714-43.244,93.73-45.25
		c8.036,36.831,15.938,73.703,24.183,110.495c27.593-17.187,54.844-34.945,82.478-52.072c4.821,32.776,9.225,65.627,14.199,98.376
		c35.001-16.272,98.793-46.865,110.77-52.099c0.285,1.002,29.672,104.211,32.186,112.126c3.49-5.33,26.425-43.788,41.41-87.332
		c13.251-39.474,10.817-52.157,11.353-62.854c4.428-110.814,56.037-233.087,114.483-316.827
		c-56.256-28.256-139.032-52.54-209.415-50.615C1479.497,905.617,1424.856,918.151,1409.008,922.472z"/>
	<path fill="#CE73AC" stroke="#CE73AC" d="M45.873,47.976c0.799-2.86,2.464-6.66,6.143-5.848c9.299,0.96,18.698-0.175,27.976,0.846
		c58.904,13.593,111.855,37.294,159.243,138.289c9.422,17.966,24.167,50.714,29.876,71.662c-2.048,2.806-3.954,5.727-6.324,8.285
		c-9.778-33.802-50.596-140.398-115.288-182.976C117.133,58.094,82.204,49.677,45.873,47.976z"/>
	<path fill="#8FA5B3" stroke="#8FA5B3" d="M79.993,42.974c5.947-0.989,118.09,0.083,137.323,1.551
		c12.273,0.836,75.62-1.361,164.802,42.135c21.795,10.654,42.904,23.24,46.002,25.781
		c-59.463,32.466-117.927,85.134-159.008,140.485c-3.511-12.884-8.647-25.25-13.77-37.557
		C194.586,79.818,147.893,58.643,79.993,42.974z"/>
	<path fill="#CE73AC" stroke="#CE73AC" d="M1361.723,44.995c2.215,0.98,2.833,3.605,3.632,5.666
		c-37.995,1.727-74.462,10.975-105.62,32.991c-52.482,36.771-92.171,120.458-108.809,172.006c-2.168-2.638-4.183-5.384-6.197-8.13
		c7.974-26.231,25.731-60.35,31.434-72.253c53.442-107.109,114.896-120.082,155.067-129.608
		C1335.148,45.165,1361.147,44.888,1361.723,44.995z"/>
	<path fill="#8FA5B3" stroke="#8FA5B3" d="M1331.229,45.666c-30.247,7.173-98.432,16.101-155.067,129.608
		c-5.28,11.022-23.391,45.794-31.434,72.253c-68.785-90.542-151.852-133.152-156.141-136.027
		c61.188-37.057,131.964-63.121,203.466-64.19C1210.994,45.798,1324.897,44.637,1331.229,45.666z"/>
	<path fill="#F5B5DD" stroke="#F5B5DD" d="M45.873,47.976c94.111,4.407,144.541,51.818,185.809,137.396
		c12.098,24.512,23.491,49.52,31.105,75.838c0,0-22.457,31.468-36.852,64.237c-23.637,54.699-29.133,149.337-39.201,200.606
		c-14.192-3.066-32.494,0.699-76.53-108.393c-14.537-36.541-33.511-91.368-39.893-127.285
		c-11.27-78.666-27.01-177.765-26.096-227.461C44.289,57.892,44.813,52.877,45.873,47.976z"/>
	<path fill="#F5B5DD" stroke="#F5B5DD" d="M1365.355,50.661c7.458,34.38-13.478,166.893-20.638,215.954
		c-13.409,89.592-55.617,190.794-81.102,231.1c-15.811,24.891-23.177,27.107-32.004,29.292
		c-19.751-82.843-2.819-160.74-80.686-271.349c17.735-54.943,57.061-135.749,108.809-172.006
		C1290.874,61.65,1327.329,52.39,1365.355,50.661z"/>
	<path fill="#8FA5B3" stroke="#8FA5B3" d="M676.366,53.971c145.528-13.507,323.359,41.04,432.263,164.177
		c83.868,91.022,91.552,145.606,106.177,258.358c15.735,113.379,6.836,42.372,103.405,151.032
		c17.544,20.76,16.432,20.852,12.011,25.425c-15.182,14.631-65.161,37.723-69.286,40.396c67.778,43.761,58.117,46.018,41.766,58.973
		c-57.949,41.86-238.587,122.104-340.963,133.704c-115.729,15.508-190.563-7.535-230.831-1.108
		c-6.412,0.604-12.958,1.625-19.315,0.101c-3.713-0.893-7.352,0.725-11.051,0.799c-22.419,0.473-3.204-5.4-79.45,1.235
		c-135.122,12.187-216.373,0.027-354.129-57.53c-38.478-15.87-175.223-77.275-163.009-93.703
		c10.452-16.921,39.885-34.008,53.038-42.471c-5.419-3.293-55.016-26.254-69.608-40.739c-4.008-4.153-5.04-4.525,12.031-24.72
		c22.392-25.307,56.317-55.207,80.739-73.643c8.208-6.437,10.346-2.578,17.523-40.222c8.606-52.749,13.234-116.947,29.829-168.212
		C265.55,231.089,424.944,65.304,676.366,53.971 M369.864,404.233c-7.25,2.861-25.08,11.057-28.674,13.481
		c18.124-5.671,37.194-15.064,49.091-11.588c9.632,2.615,41.724,14.518,41.739,14.522c-1.007-0.705-38.406-20.768-46.983-20.349
		C379.767,400.527,374.738,402.366,369.864,404.233 M984.56,401.963c-13.188,5.263-36.435,17.015-38.919,18.684
		c0.377-0.08,29.141-10.648,34.482-12.373c20.285-6.285,19.151-2.109,56.342,9.44c-2.168-1.498-29.517-15.578-41.827-17.261
		C991.199,399.936,987.728,400.641,984.56,401.963 M425.058,539.286c-51.605,3.663-76.893,25.491-99.061,47.359
		c-27.397,27.068-31.599,38.589-35.516,37.422c-5.381-1.43-29.583-18.708-37.765-19.51c3.389,5.617,18.754,16.75,24.25,20.92
		c20.291,13.648,17.368,10.899,21.215,6.499c62.534-80.422,194.489-103.266,271.483,2.303c0.846,0.866,1.779,2.538,3.216,2.068
		C581.455,623.583,526.833,531.743,425.058,539.286 M874.031,554.647c-39.287,17.95-75.906,66.783-69.286,81.733
		c1.477,0.362,2.377-1.195,3.243-2.101c38.854-52.754,93.55-75.081,146.869-71.488c46.978,4.318,101.196,37.411,126.957,72.253
		c3.867,3.581,38.681-23.529,43.122-30.487c-8.432,0.294-34.819,20.76-39.41,19.443
		C1076.784,618.343,1004.672,495.377,874.031,554.647 M653.935,707.136c19.329,25.514,79.449,19.404,86.318-6.385
		c3.351-11.729-6.866-21.51-18.02-26.325C683.551,657.604,636.028,683.108,653.935,707.136z"/>
	<path fill="#314856" stroke="#314856" d="M422.413,415.612c3.216,1.645,6.626,2.947,9.607,5.035
		c-0.016-0.003-32.107-11.906-41.739-14.522c-11.943-3.49-30.676,5.825-49.091,11.588c1.732-1.168,3.578-2.169,5.499-2.981
		C388.146,394.823,384.558,396.554,422.413,415.612z"/>
	<path fill="#314856" stroke="#314856" d="M1029.998,414.29c2.229,0.98,4.444,2.028,6.465,3.424
		c-37.739-11.719-36.267-15.659-56.342-9.44c-5.34,1.725-34.105,12.293-34.482,12.373c4.115-2.766,8.829-4.458,13.166-6.828
		C991.929,397.284,990.587,394.822,1029.998,414.29z"/>
	<path fill="#304755" stroke="#304755" d="M508.563,557.05c40.348,21.007,71.427,68.712,64.318,79.296
		c-1.437,0.47-2.37-1.202-3.216-2.068c-77.57-106.358-209.66-81.811-271.483-2.303c-3.826,4.375-0.863,7.19-21.215-6.499
		c-5.486-4.162-20.867-15.313-24.25-20.92c8.33,0.817,32.229,18.039,37.765,19.51c3.931,1.17,8.039-10.276,35.516-37.422
		c12.373-12.206,25.546-24.062,41.162-31.971C412.972,533.724,459.81,532.884,508.563,557.05z"/>
	<path fill="#304755" stroke="#304755" d="M1017.772,558.722c29.515,17.974,67.746,65.272,67.755,65.278
		c4.24,1.216,31.43-19.164,39.41-19.443c-4.387,6.872-39.27,34.055-43.122,30.487c-53.496-72.354-188.518-116.591-273.826-0.765
		c-0.866,0.906-1.766,2.464-3.243,2.101c-4.445-10.035,9.843-29.924,16.502-38.557C877.931,527.5,968.358,527.601,1017.772,558.722z
		"/>
	<path fill="#F5B5DD" stroke="#F5B5DD" d="M740.254,700.751c-6.868,25.783-66.984,31.905-86.318,6.385
		c-6.159-8.264-5.213-19.231,6.741-28.151C692.053,657.095,747.673,674.784,740.254,700.751z"/>
	<path fill="#8FA5B3" stroke="#8FA5B3" d="M229.232,828.419c26.308-0.774,57.077,25.409,161.975,53.421
		c28.316,7.814,36.262,14.532,71.112,26.949c10.634,3.21,5.181,3.647,28.762-6.694c13.561-5.804,1.254-1.671,41.659-1.927
		c60.677,1.216,110.238-9.103,146.393-7.378c8.835,0.624,17.771,2.853,26.62,1.074c2.122-0.389,4.303-0.383,6.432,0
		c10.447,2.075,20.893-1.323,31.367-1.249c36.063-0.987,66.278,8.061,153.744,7.432c22.108-0.841,19.794-2.078,23.827,1.101
		c26.328,22.28,33.097,28.892,42.055,35.146c5.379,3.066-1.591,2.569,32.367-6.425c182.782-48.463,160.102-50.191,187.132-50.729
		c46.004-1.625,91.377,24.972,110.427,58.859c28.468,51.932-13.717,113.847-60.92,145.963
		c-35.291,24.236-136.754,37.152-172.006,48.634c-12.333-3.646-25.083-6.432-38.013-6.23c-20.809-0.036-64.738,12.569-91.817,48.695
		c-1.694-6.232-5.815-39.253-22.081-76.436c-107.289-246.025-450.162-208.587-499.736,72.716
		c-23.203-17.627-56.974-31.507-92.099-24.881c22.97-62.762,37.865-49.92-10.118-59.531
		C-18.697,1025.974,74.99,835.977,229.232,828.419z"/>
	<path fill="#FFFFFF" stroke="#FFFFFF" d="M1722.364,955.221c-117.933,168.972-114.047,328.598-115.583,338.956
		c-5.7,41.859-35.598,103.525-51.662,128.058c-2.51-7.902-31.901-111.125-32.186-112.126c-11.783,5.149-76.59,36.208-110.77,52.099
		c-4.975-32.75-9.379-65.6-14.199-98.376c-27.634,17.127-54.885,34.885-82.478,52.072c-8.245-36.791-16.147-73.663-24.183-110.495
		c-5.004,2.002-57.748,28.014-93.73,45.25c17.315-57.112,40.765-159.086,53.106-169.709c26.088-21.054,51.032-53.376,57.953-86.419
		c1.041-3.86,1.356-7.862,2.216-11.742c0.556-1.005,33.385-43.056,98.161-60.316C1507.586,895.597,1603.981,895.76,1722.364,955.221
		z"/>
	<path fill="#A6CCDF" stroke="#A6CCDF" d="M927.359,1160.111c1.108,4.961,1.652,10.037,2.988,14.951
		c-2.618,4.277-5.344,8.52-7.459,13.078c-9.781-103.324-79.552-202.434-184.856-234.806
		c-153.211-45.546-299.893,66.39-321.688,224.816c-2.457-2.437-5.096-4.679-7.815-6.808
		c17.724-100.572,75.434-172.818,149.286-210.536C713.04,884.47,890.708,980.749,927.359,1160.111z"/>
	<path fill="#D0EFFE" stroke="#D0EFFE" d="M922.887,1188.141c-23.736,49.36-4.292,127.902-50.588,184.507
		c-20.024,23.44-34.625,40.493-44.123,65.922c-66.594,57.878-154.475,74.383-233.262,48.594
		c-35.741-12.088-53.216-25.375-64.096-31.971c-27.26-73.796-68.653-37.624-81.605-199.754
		c-2.634-29.511-11.756-56.938-32.87-77.288c10.81-78.575,54.988-153.193,122.317-196.222
		C699.675,877.167,904.595,994.902,922.887,1188.141z"/>
	<path fill="#71C4C6" stroke="#71C4C6" d="M988.313,1133.444c50.879-19.309,109.996,7.173,137.235,45.297
		c18.25,24.651,17.481,92.244,6.606,143.546c-28.231,134.557-174.401,338.691-283.923,204.789
		c-26.903-34.607-32.854-72.15-10.198-109.467c31.121-52.974,58.748-43.302,70.555-160.31
		C913.243,1211.918,914.961,1159.937,988.313,1133.444 M996.544,1136.955c-42.188,13.986-68.474,37.15-77.577,82.236
		c-4.133,19.787-5.602,110.601-35.986,149.998c-27.207,33.654-91.693,92.189-22.471,162.553
		c60.599,62.572,127.473,29.776,182.17-40.43c21.284-27.792,49.844-75.105,58.591-93.791c27.572-58.623,37.164-130.164,30.749-179.7
		c-2.969-20.231-6.878-46.333-53.233-70.877C1053.899,1134.134,1022.213,1127.343,996.544,1136.955z"/>
	<path fill="#B5FDFF" stroke="#B5FDFF" d="M1078.787,1146.945c46.286,24.508,50.256,50.588,53.233,70.877
		c6.34,48.955-2.884,120.454-30.749,179.7c-8.742,18.675-37.3,65.99-58.591,93.791c-54.533,69.996-121.631,102.94-182.17,40.43
		c-69.221-70.363-4.561-129.116,22.471-162.553c30.443-39.474,31.804-129.977,35.986-149.998
		c9.081-44.976,35.276-68.213,77.577-82.236C1022.35,1127.292,1054.039,1134.206,1078.787,1146.945z"/>
	<path fill="#71C4C6" stroke="#71C4C6" d="M316.43,1146.462c40.315-7.606,82.29,14.209,99.914,31.689
		c49.99,48.181,18.522,97.275,56.684,192.597c8.323,19.933,49.365,48.704,61.048,96.691c6.726,31.19-9.817,74.702-48.93,102.116
		c-46.025,32.76-111.301,32.926-186.42-74.865c-42.12-61.146-54.37-92.724-62.82-120.626c-14.66-49.155-29.38-144.313,2.444-182.902
		C254.969,1170.864,280.244,1154.503,316.43,1146.462 M233.488,1210.491c-16.59,44.362-8.351,152.443,36.657,227.448
		c30.211,50.003,90.92,153.787,166.588,144.318c56.173-6.187,115.286-74.13,83.149-136.947
		c-30.887-60.17-65.263-41.975-76.557-188.078c-4.6-56.701-31.136-84.837-76.825-100.948
		C312.618,1135.083,244.96,1178.458,233.488,1210.491z"/>
	<path fill="#B5FDFF" stroke="#B5FDFF" d="M366.501,1156.284c120.962,42.652,46.571,154.533,116.423,238.753
		c20.93,24.521,46.109,52.989,46.694,85.842c1.714,58.207-105.664,204.59-242.466-14.925
		c-20.375-32.581-31.791-51.771-43.411-86.862c-12.728-38.861-19.915-84.343-17.684-127.896c1.708-25.198,3.343-66.65,68.05-92.193
		C317.775,1149.892,342.792,1146.956,366.501,1156.284z"/>
	<path fill="#8FA5B3" stroke="#8FA5B3" d="M1285.193,1218.252c23.428,104.718,20.419,106.61,30.977,106.016
		c4.448-0.09,69.182-42.227,74.818-45.862c3.306,11.367,9.733,85.515,15.938,90.253c8.266,7.22,16.899-5.132,110.501-46.217
		c33.631,116.748,32.018,109.475,30.286,111.978c-26.888,42.088-59.504,80.988-99.068,111.723
		c-133.059,102.815-411.279,97.839-521.26,24.713c51.255,0.187,91.258-37.802,122.203-78.678
		c56.625-75.532,73.068-124.624,82.565-169.891c38.221-10.472,45.382-22.484,51.629-34.979c9.373-18.589,7.714-24.316,12.226-26.076
		C1239.241,1240.447,1276.323,1221.965,1285.193,1218.252z"/>
	<path fill="#A6CCDF" stroke="#A6CCDF" d="M828.177,1438.569c-1.336,4.646-2.424,9.372-3.397,14.112
		c-88.289,69.132-204.612,72.115-290.704,14.757c-1-4.109-1.94-8.238-3.256-12.246c13.472,8.167,57.248,41.218,132.153,43.767
		C725.276,1500.141,782.465,1478.299,828.177,1438.569z"/>
	<path fill="#8FA5B3" stroke="#8FA5B3" d="M824.78,1452.682c-4.301,24.958,6.843,53.03,23.451,74.395
		c-164.833,35.654-262.926,9.339-325.609,1.255c9.106-16.464,16.122-39.249,11.454-60.893
		C619.629,1524.438,735.961,1522.229,824.78,1452.682z"/>
	<path fill="#6A818B" stroke="#6A818B" d="M848.231,1527.076c2.081,2.545,4.377,4.901,6.579,7.351
		c-17.955,2.793-157.899,41.746-336.875,1.531c1.611-2.518,3.182-5.055,4.686-7.627
		C592.719,1537.371,685.466,1562.283,848.231,1527.076z"/>
</g>
</svg>
