<?xml version="1.0" encoding="UTF-8"?>
<!DOCTYPE svg PUBLIC "-//W3C//DTD SVG 1.1//EN" "http://www.w3.org/Graphics/SVG/1.1/DTD/svg11.dtd">
<svg version="1.1" xmlns="http://www.w3.org/2000/svg" xmlns:xlink="http://www.w3.org/1999/xlink" x="0" y="0" width="540" height="368" viewBox="0, 0, 540, 368">
  <defs>
    <radialGradient id="Gradient_1" gradientUnits="userSpaceOnUse" cx="373.385" cy="171.925" r="274.646">
      <stop offset="0" stop-color="#C2C4C1"/>
      <stop offset="0.006" stop-color="#C2C4C1"/>
      <stop offset="0.298" stop-color="#BABCBA"/>
      <stop offset="0.657" stop-color="#A5A7A6"/>
      <stop offset="1" stop-color="#989B9A"/>
    </radialGradient>
    <radialGradient id="Gradient_2" gradientUnits="userSpaceOnUse" cx="374.387" cy="171.907" r="297.825">
      <stop offset="0" stop-color="#C2C4C1"/>
      <stop offset="0.006" stop-color="#C2C4C1"/>
      <stop offset="0.298" stop-color="#BABCBA"/>
      <stop offset="0.657" stop-color="#A5A7A6"/>
      <stop offset="1" stop-color="#989B9A"/>
    </radialGradient>
    <radialGradient id="Gradient_3" gradientUnits="userSpaceOnUse" cx="373.406" cy="171.902" r="297.67">
      <stop offset="0" stop-color="#C2C4C1"/>
      <stop offset="0.006" stop-color="#C2C4C1"/>
      <stop offset="0.298" stop-color="#BABCBA"/>
      <stop offset="0.657" stop-color="#A5A7A6"/>
      <stop offset="1" stop-color="#989B9A"/>
    </radialGradient>
    <radialGradient id="Gradient_4" gradientUnits="userSpaceOnUse" cx="357.507" cy="174.534" r="284.552">
      <stop offset="0" stop-color="#C2C4C1"/>
      <stop offset="0.006" stop-color="#C2C4C1"/>
      <stop offset="0.298" stop-color="#BABCBA"/>
      <stop offset="0.657" stop-color="#A5A7A6"/>
      <stop offset="1" stop-color="#989B9A"/>
    </radialGradient>
    <radialGradient id="Gradient_5" gradientUnits="userSpaceOnUse" cx="24.915" cy="31.309" r="82.308">
      <stop offset="0" stop-color="#C2C4C1"/>
      <stop offset="0.006" stop-color="#C2C4C1"/>
      <stop offset="0.298" stop-color="#BABCBA"/>
      <stop offset="0.657" stop-color="#A5A7A6"/>
      <stop offset="1" stop-color="#989B9A"/>
    </radialGradient>
    <radialGradient id="Gradient_6" gradientUnits="userSpaceOnUse" cx="284.387" cy="38.171" r="59.882">
      <stop offset="0" stop-color="#C2C4C1"/>
      <stop offset="0.006" stop-color="#C2C4C1"/>
      <stop offset="0.298" stop-color="#BABCBA"/>
      <stop offset="0.657" stop-color="#A5A7A6"/>
      <stop offset="1" stop-color="#989B9A"/>
    </radialGradient>
    <radialGradient id="Gradient_7" gradientUnits="userSpaceOnUse" cx="121.892" cy="119.365" r="164.606">
      <stop offset="0" stop-color="#C2C4C1"/>
      <stop offset="0.006" stop-color="#C2C4C1"/>
      <stop offset="0.298" stop-color="#BABCBA"/>
      <stop offset="0.657" stop-color="#A5A7A6"/>
      <stop offset="1" stop-color="#989B9A"/>
    </radialGradient>
    <radialGradient id="Gradient_8" gradientUnits="userSpaceOnUse" cx="153.556" cy="262.502" r="38.945">
      <stop offset="0" stop-color="#E5DF58"/>
      <stop offset="0.503" stop-color="#E5DF58"/>
      <stop offset="1" stop-color="#DC8246"/>
    </radialGradient>
  </defs>
  <g id="Layer_1">
    <path d="M423.706,176.313 C445.019,182.18 484.284,206.008 499.956,218.813 C526.87,240.797 550.245,276.516 523.503,305.274 C504.44,325.79 442.331,368.829 431.675,342.211 C424.831,325.063 443.276,312.532 454.542,309.071 C476.753,302.243 513.417,278.899 485.378,256.915 C457.354,234.938 409.128,218.813 409.128,218.813 L423.706,176.313 z" fill="url(#Gradient_1)"/>
    <path d="M486.917,254.954 C494.472,260.836 498.011,267.352 497.995,273.836 C497.417,292.383 472.144,306.008 455.261,311.446 C446.206,314.118 432.378,323.532 432.667,334.821 C432.683,336.829 433.065,338.985 434.003,341.29 C436.034,346.219 439.573,348.008 445.534,348.141 C466.237,348.446 507.448,319.11 521.667,303.571 C529.589,294.969 532.769,286.024 532.792,276.93 C532.878,256.891 516.604,235.586 498.378,220.75 C483.636,208.649 446.37,185.993 425.292,179.383 L412.292,217.274 C422.362,220.829 462.05,235.5 486.917,254.954 z M429.354,343.125 C428.222,340.305 427.667,337.516 427.683,334.821 C427.964,319.477 443.667,309.868 453.784,306.672 C469.933,301.969 493.558,287.219 493.003,273.836 C492.979,269.25 490.636,264.258 483.823,258.875 C456.37,237.321 408.401,221.18 408.323,221.18 C407.683,220.969 407.175,220.516 406.87,219.922 C406.581,219.321 406.526,218.618 406.745,218 L421.323,175.5 C421.753,174.243 423.073,173.555 424.354,173.899 C446.401,180.024 485.464,203.805 501.519,216.868 C520.3,232.282 537.675,254.204 537.776,276.93 C537.776,287.243 534.026,297.594 525.323,306.969 C509.933,323.25 469.8,352.836 445.534,353.141 C445.386,353.141 445.253,353.141 445.112,353.141 C438.19,353.141 431.972,349.993 429.354,343.125" fill="#373634"/>
    <path d="M526.073,247.93 C523.933,244.407 521.495,240.969 518.823,237.649 C512.479,242.961 502.612,246.883 496.917,251.688 C507.823,254.875 516.394,252.438 526.073,247.93 z M503.214,322.985 C506.675,320.375 509.933,317.766 512.886,315.25 C504.136,314.329 495.714,312.352 489.198,310.352 C493.69,315.352 498.261,319.43 503.214,322.985 z M534.831,270.719 C525.073,273.36 514.526,274.774 509.487,279.04 C516.815,283.727 525.604,284.641 534.308,285.274 C535.354,280.446 535.542,275.571 534.831,270.719 z M499.956,218.813 C496.003,215.571 490.495,211.618 484.183,207.43 C483.229,210.79 481.894,214.133 479.683,217.454 C476.198,222.711 469.167,226.36 468.448,232.29 C479.089,236.024 490.183,226.875 500.245,219.055 C500.151,218.977 500.058,218.899 499.956,218.813" fill="#373634"/>
    <path d="M208.792,176.477 C242.979,179.102 298.003,128.469 341.394,128.469 C460.253,128.469 469.987,238.915 438.55,280.485 C403.089,327.352 284.237,347.93 247.651,350.211 C211.058,352.508 117.354,368.5 99.073,313.633 C80.776,258.782 119.636,169.618 208.792,176.477 z" fill="url(#Gradient_2)"/>
    <path d="M97.12,284.891 C97.12,294.766 98.573,304.25 101.425,312.844 C111.706,344.305 149.128,351.641 186.058,351.618 C209.862,351.618 232.956,348.633 247.495,347.711 C283.581,345.665 402.597,324.469 436.55,278.985 C445.667,266.868 451.394,248.235 451.362,228.297 C451.159,182.829 422.729,131.133 341.394,130.969 C300.558,130.665 247.495,178.672 211.394,179.055 C210.456,179.079 209.542,179.032 208.604,178.969 L208.792,176.477 L208.581,178.969 C205.354,178.688 202.222,178.586 199.175,178.586 C132.3,178.688 97.206,235.782 97.12,284.891 z M96.683,314.422 C93.636,305.274 92.128,295.25 92.128,284.891 C92.229,233.711 129.003,173.618 199.175,173.602 C202.362,173.571 205.62,173.704 208.995,173.977 C209.776,174.04 210.573,174.071 211.394,174.071 C243.94,174.469 297.573,126.258 341.394,125.954 C383.214,125.938 412.128,139.54 430.425,159.243 C448.729,178.946 456.354,204.54 456.386,228.297 C456.354,249.172 450.511,268.704 440.534,281.993 C403.581,330.227 284.878,350.188 247.8,352.704 C233.573,353.602 210.253,356.625 186.058,356.625 C148.917,356.602 108.573,349.547 96.683,314.422" fill="#373634"/>
    <path d="M279.565,149.321 C302.206,171.727 317.214,231.266 319.667,259.922 C322.386,233.438 316.339,169.274 301.651,138.704 C294.292,141.891 286.901,145.524 279.565,149.321 z M246.784,166.11 C263.659,188.43 282.378,256.391 280.808,278.211 C288.237,251.985 274.558,185.946 263.003,157.993 C257.464,160.875 252.058,163.625 246.784,166.11 z M392.229,136.891 C383.308,133.469 373.229,130.946 361.753,129.618 C380.183,150.5 394.089,177.141 405.503,200.805 C405.042,180.633 399.464,158.602 392.229,136.891 z M341.394,128.469 C330.667,128.469 319.276,131.563 307.644,136.165 C341.128,169.047 360.542,213.063 371.089,257.625 C373.394,219.922 362.284,168.188 344.886,128.571 C343.714,128.547 342.597,128.469 341.394,128.469" fill="#373634"/>
    <path d="M404.245,270.211 C386.136,272.61 367.097,281.571 349.354,286.461 C330.854,291.555 313.003,302.649 297.878,314.469 C286.308,323.524 270.901,335.579 260.604,349 C306.675,343.649 406.581,322.774 438.55,280.485 C439.862,278.75 441.089,276.836 442.253,274.868 C430.292,272.571 414.261,268.875 404.245,270.211" fill="#FFFFFE"/>
    <path d="M97.12,284.891 C97.12,294.766 98.573,304.25 101.425,312.844 C111.706,344.305 149.128,351.641 186.058,351.618 C209.862,351.618 232.956,348.633 247.495,347.711 C283.581,345.665 402.597,324.469 436.55,278.985 C445.667,266.868 451.394,248.235 451.362,228.297 C451.159,182.829 422.729,131.133 341.394,130.969 C300.558,130.665 247.495,178.672 211.394,179.055 C210.456,179.079 209.542,179.032 208.604,178.969 L208.792,176.477 L208.581,178.969 C205.354,178.688 202.222,178.586 199.175,178.586 C132.3,178.688 97.206,235.782 97.12,284.891 z M96.683,314.422 C93.636,305.274 92.128,295.25 92.128,284.891 C92.229,233.711 129.003,173.618 199.175,173.602 C202.362,173.571 205.62,173.704 208.995,173.977 C209.776,174.04 210.573,174.071 211.394,174.071 C243.94,174.469 297.573,126.258 341.394,125.954 C383.214,125.938 412.128,139.54 430.425,159.243 C448.729,178.946 456.354,204.54 456.386,228.297 C456.354,249.172 450.511,268.704 440.534,281.993 C403.581,330.227 284.878,350.188 247.8,352.704 C233.573,353.602 210.253,356.625 186.058,356.625 C148.917,356.602 108.573,349.547 96.683,314.422" fill="#373634"/>
    <path d="M267.401,316.758 C242.292,346.954 192.253,376.172 175.659,357.547 C157.331,337 191.003,292.805 227.206,274.993 z" fill="url(#Gradient_3)"/>
    <path d="M173.784,359.211 C169.784,354.743 167.956,349.149 167.979,343.274 C168.276,318.946 196.261,287.586 226.112,272.75 C227.339,272.141 228.839,272.649 229.433,273.907 C230.042,275.133 229.542,276.633 228.3,277.227 C199.722,291.071 172.683,322.696 172.979,343.274 C172.995,348.188 174.401,352.36 177.526,355.891 C180.534,359.274 184.886,360.868 190.644,360.891 C211.347,361.086 246.347,338.352 265.479,315.165 C266.362,314.102 267.933,313.969 268.979,314.844 C270.042,315.719 270.19,317.29 269.308,318.352 C249.151,342.375 214.386,365.68 190.644,365.868 L190.534,365.868 C183.933,365.868 177.909,363.883 173.784,359.211" fill="#373634"/>
    <path d="M138.151,281.993 C160.722,303.625 181.104,344.969 165.354,357.071 C147.987,370.438 120.3,339.938 108.214,310.211 z" fill="url(#Gradient_4)"/>
    <path d="M155.933,362.797 C136.823,362.336 116.386,336.336 105.901,311.149 C105.37,309.875 105.979,308.407 107.261,307.899 C108.534,307.368 109.979,307.985 110.511,309.258 C120.144,333.602 141.542,358.274 155.933,357.805 C158.761,357.782 161.339,356.977 163.815,355.11 C166.886,352.704 168.37,348.875 168.386,343.524 C168.534,327.118 153.026,299.571 136.401,283.797 L136.425,283.797 C135.401,282.844 135.378,281.266 136.339,280.266 C137.292,279.274 138.862,279.227 139.862,280.188 C157.253,296.993 173.229,324.461 173.386,343.524 C173.425,349.75 171.526,355.446 166.854,359.055 C163.589,361.586 159.823,362.797 156.034,362.797 L155.933,362.797" fill="#373634"/>
    <path d="M207.011,243.063 C207.011,256.79 187.831,267.922 164.151,267.922 C140.479,267.922 121.276,256.79 121.276,243.063 C121.276,229.329 140.479,218.196 164.151,218.196 C187.831,218.196 207.011,229.329 207.011,243.063" fill="#2E8EBA"/>
    <path d="M135.073,227.633 C127.729,231.891 123.737,237.438 123.776,243.055 C123.737,248.665 127.729,254.211 135.073,258.469 C142.362,262.696 152.698,265.422 164.136,265.422 C175.604,265.422 185.917,262.696 193.198,258.469 C200.511,254.211 204.519,248.665 204.495,243.055 C204.519,237.438 200.511,231.891 193.198,227.633 C185.917,223.399 175.604,220.68 164.136,220.68 C152.698,220.68 142.362,223.399 135.073,227.633 z M118.769,243.055 C119.206,226.743 139.901,215.79 164.136,215.688 C188.394,215.79 209.05,226.743 209.511,243.055 C209.05,259.36 188.394,270.313 164.136,270.422 C139.901,270.313 119.206,259.36 118.769,243.055" fill="#373634"/>
    <path d="M128.339,93.868 C128.339,93.868 47.386,-0.539 19.91,10.11 C-7.567,20.758 38.745,185.719 38.745,185.719 L128.339,93.868 z" fill="url(#Gradient_5)"/>
    <path d="M24.73,11.758 C23.222,11.758 21.917,11.993 20.8,12.438 C16.62,13.586 13.495,23.18 13.66,37.821 C13.62,80.86 34.761,161.618 39.995,180.852 L124.917,93.766 C120.167,88.321 104.644,70.86 86.44,53.375 C64.87,32.415 38.73,11.75 25.035,11.75 C24.941,11.75 24.831,11.75 24.73,11.758 z M38.113,188.141 C37.261,187.922 36.558,187.243 36.324,186.399 C36.324,186.266 8.706,88.313 8.667,37.821 C8.839,22.907 10.605,11.5 18.972,7.782 C20.777,7.063 22.73,6.758 24.73,6.758 C58.628,7.547 129.698,92.165 130.222,92.243 L128.339,93.86 L130.222,92.243 C131.073,93.219 131.011,94.696 130.112,95.602 L40.535,187.461 C40.042,187.946 39.394,188.211 38.714,188.211 C38.527,188.211 38.316,188.188 38.113,188.141" fill="#373634"/>
    <path d="M130.331,111.946 C130.331,111.946 66.089,37.016 44.292,45.469 C22.488,53.922 59.253,184.821 59.253,184.821 L130.331,111.946" fill="#F2B9B6"/>
    <path d="M203.901,89.915 C203.901,89.915 284.839,-4.484 312.3,6.165 C339.792,16.805 293.464,181.758 293.464,181.758 L203.901,89.915 z" fill="url(#Gradient_6)"/>
    <path d="M292.198,176.875 C297.386,157.594 318.534,76.907 318.495,33.875 C318.659,19.227 315.573,9.625 311.386,8.5 C310.229,8.055 308.948,7.821 307.464,7.821 C293.854,7.5 267.479,28.321 245.761,49.422 C227.565,66.891 212.065,84.352 207.3,89.805 L292.198,176.875 z M291.667,183.493 L202.089,91.641 L203.901,89.915 L205.8,91.54 L203.901,89.915 L202.089,91.641 C201.198,90.727 201.159,89.258 201.987,88.274 C202.519,88.196 273.573,3.602 307.464,2.813 C309.44,2.813 311.386,3.133 313.19,3.836 C321.597,7.563 323.323,18.977 323.495,33.875 C323.456,84.336 295.886,182.305 295.854,182.43 C295.62,183.282 294.948,183.961 294.073,184.172 C293.862,184.235 293.651,184.258 293.448,184.258 C292.776,184.258 292.136,183.977 291.667,183.493" fill="#373634"/>
    <path d="M203.198,111.946 C203.198,111.946 267.44,37.016 289.253,45.469 C311.05,53.922 274.292,184.821 274.292,184.821 L203.198,111.946" fill="#F2B9B6"/>
    <path d="M311.597,159.391 C311.597,218.43 246.753,255.477 166.776,255.477 C86.784,255.477 21.964,218.43 21.964,159.391 C21.964,100.352 86.784,41.696 166.776,41.696 C246.753,41.696 311.597,100.352 311.597,159.391 z" fill="url(#Gradient_7)"/>
    <path d="M226.229,246.844 C231.081,237.555 233.87,227.016 233.87,215.805 C233.87,178.93 204.183,149.04 167.573,149.04 C130.964,149.04 101.292,178.93 101.292,215.805 C101.292,227.266 104.167,238.055 109.206,247.477 C126.862,252.688 146.308,255.477 166.776,255.477 C187.987,255.477 208.073,252.438 226.229,246.844" fill="#FFFFFE"/>
    <path d="M96.854,202.352 C96.854,213.993 87.409,223.43 75.776,223.43 C64.136,223.43 54.706,213.993 54.706,202.352 C54.706,190.711 64.136,181.274 75.776,181.274 C87.409,181.274 96.854,190.711 96.854,202.352" fill="#F2B9B6"/>
    <path d="M278.636,202.352 C278.636,213.993 269.198,223.43 257.565,223.43 C245.933,223.43 236.479,213.993 236.479,202.352 C236.479,190.711 245.933,181.274 257.565,181.274 C269.198,181.274 278.636,190.711 278.636,202.352" fill="#F2B9B6"/>
    <path d="M113.55,179.18 C111.089,192.047 98.659,200.477 85.815,198.024 C72.948,195.555 64.511,183.133 66.979,170.266 C69.44,157.415 81.854,148.977 94.729,151.438 C107.589,153.899 116.011,166.321 113.55,179.18" fill="#EDDD49"/>
    <path d="M69.417,170.774 C69.136,172.071 69.011,173.415 69.011,174.75 C69.011,184.711 76.112,193.61 86.276,195.563 C87.597,195.821 88.948,195.946 90.269,195.946 C100.222,195.93 109.104,188.899 111.081,178.743 L111.073,178.743 C111.323,177.344 111.448,176 111.448,174.688 C111.448,164.727 104.401,155.821 94.245,153.891 C92.886,153.618 91.55,153.493 90.229,153.493 C80.253,153.493 71.347,160.579 69.417,170.774 z M85.331,200.477 C72.769,198.055 64.019,187.086 64.019,174.75 C64.019,173.118 64.167,171.438 64.511,169.797 C66.909,157.25 77.886,148.493 90.229,148.493 C91.862,148.493 93.526,148.649 95.198,148.985 C107.729,151.383 116.464,162.352 116.44,174.688 C116.44,176.321 116.292,177.977 116.011,179.618 L113.55,179.188 L115.995,179.657 C113.589,192.204 102.597,200.938 90.269,200.938 C88.636,200.938 86.979,200.766 85.331,200.477" fill="#373634"/>
    <path d="M91.003,158.516 C99.792,161.024 104.495,171.5 101.526,181.938 C98.558,192.383 89.042,198.813 80.253,196.305 C71.464,193.813 66.745,183.321 69.714,172.883 C72.683,162.454 82.214,156.016 91.003,158.516" fill="#373634"/>
    <path d="M88.159,174.61 C85.979,176.547 82.651,176.36 80.722,174.196 C78.776,172.032 78.948,168.704 81.112,166.758 C83.3,164.813 86.62,165 88.558,167.165 C90.503,169.336 90.323,172.665 88.159,174.61" fill="#FFFFFE"/>
    <path d="M221.089,179.18 C223.558,192.047 235.979,200.477 248.847,198.024 C261.714,195.555 270.144,183.133 267.675,170.266 C265.214,157.415 252.8,148.977 239.933,151.438 C227.058,153.899 218.636,166.321 221.089,179.18" fill="#EDDD49"/>
    <path d="M244.354,195.954 C245.667,195.93 247.011,195.821 248.347,195.563 C258.526,193.61 265.565,184.719 265.581,174.758 C265.581,173.438 265.433,172.071 265.198,170.735 C263.269,160.563 254.354,153.5 244.394,153.5 C243.058,153.5 241.714,153.61 240.401,153.883 C230.198,155.836 223.136,164.735 223.136,174.711 C223.136,176.032 223.269,177.352 223.526,178.672 L221.089,179.18 L223.542,178.711 C225.479,188.86 234.394,195.93 244.354,195.954 z M244.354,200.93 C232.019,200.954 221.05,192.219 218.628,179.696 C218.292,177.993 218.136,176.336 218.136,174.711 C218.136,162.375 226.886,151.391 239.409,148.993 C241.073,148.649 242.753,148.5 244.394,148.5 C256.737,148.5 267.714,157.243 270.112,169.844 C270.417,171.461 270.565,173.118 270.565,174.758 C270.581,187.071 261.862,198.055 249.284,200.485 C247.745,200.758 246.183,200.93 244.628,200.93 L244.354,200.93" fill="#373634"/>
    <path d="M248.073,158.836 C239.831,154.883 229.339,159.625 224.667,169.415 C219.979,179.204 222.854,190.336 231.104,194.282 C239.354,198.219 249.823,193.493 254.495,183.704 C259.198,173.907 256.315,162.774 248.073,158.836" fill="#373634"/>
    <path d="M234.573,174.977 C236.745,176.907 240.065,176.727 242.011,174.563 C243.948,172.383 243.769,169.055 241.604,167.118 C239.433,165.18 236.112,165.36 234.167,167.532 C232.229,169.696 232.409,173.032 234.573,174.977" fill="#FFFFFE"/>
    <path d="M130.276,203.586 C129.479,201.696 130.37,199.485 132.284,198.696 C134.175,197.883 136.362,198.782 137.198,200.672 C137.214,200.649 138.151,202.688 139.948,204.711 C141.808,206.813 144.589,208.922 148.261,208.766 C149.37,208.766 150.644,208.602 152.104,208.172 C161.034,205.477 163.308,201.758 163.948,200.586 C164.12,200.313 164.097,200.313 164.097,200.313 C164.589,198.29 166.581,197.04 168.62,197.524 C170.62,198.016 171.87,200.032 171.386,202.055 C171.261,203.094 168.323,211.297 154.214,215.352 C152.136,215.977 150.136,216.274 148.261,216.274 C135.151,215.954 130.456,203.821 130.276,203.586" fill="#373634"/>
    <path d="M182.011,215.446 C168.144,212.766 163.659,202.219 164.003,194.547 C164.003,187.868 166.269,182.641 166.37,182.383 C167.183,180.469 169.401,179.571 171.284,180.383 C173.183,181.188 174.081,183.399 173.269,185.297 C173.354,185.344 171.464,189.657 171.479,194.547 C171.808,200.329 172.995,205.579 183.534,208.086 C184.854,208.368 186.042,208.493 187.104,208.493 C195.526,208.665 198.737,200.758 198.737,200.758 L198.761,200.758 C199.511,198.821 201.698,197.883 203.612,198.649 C205.526,199.415 206.464,201.602 205.714,203.524 C205.581,203.836 200.87,215.813 187.104,215.977 C185.479,215.977 183.792,215.813 182.011,215.446" fill="#373634"/>
    <path d="M166.104,189.196 C173.065,190.219 183.526,180.985 181.206,174.821 C179.698,170.813 154.776,168.954 152.151,173.797 C149.55,178.633 158.003,188 166.104,189.196" fill="#EC978C"/>
    <path d="M164.472,175.133 C164.472,176.282 162.3,177.211 159.636,177.211 C156.987,177.211 154.808,176.282 154.808,175.133 C154.808,173.977 156.987,173.047 159.636,173.047 C162.3,173.047 164.472,173.977 164.472,175.133" fill="#F9DAD6"/>
    <path d="M3.55,196.344 C3.238,194.313 4.62,192.375 6.66,192.063 L47.511,185.485 C49.55,185.141 51.479,186.54 51.823,188.579 C52.136,190.618 50.738,192.547 48.699,192.891 L7.87,199.469 C7.675,199.493 7.48,199.508 7.285,199.508 C5.456,199.508 3.863,198.188 3.55,196.344" fill="#373634"/>
    <path d="M17.136,218.079 C16.417,216.125 17.433,213.977 19.363,213.274 L53.894,200.711 C55.847,200.008 57.995,201.008 58.698,202.961 C59.394,204.891 58.394,207.063 56.464,207.758 L21.933,220.321 C21.511,220.477 21.081,220.547 20.652,220.547 C19.12,220.547 17.683,219.602 17.136,218.079" fill="#373634"/>
    <path d="M320.175,196.836 L279.354,190.235 C277.308,189.915 275.925,187.977 276.245,185.93 C276.573,183.891 278.503,182.508 280.542,182.829 L321.386,189.422 C323.425,189.743 324.808,191.68 324.495,193.727 C324.183,195.571 322.597,196.883 320.769,196.883 C320.573,196.883 320.37,196.868 320.175,196.836" fill="#373634"/>
    <path d="M306.12,217.672 L271.604,205.118 C269.667,204.415 268.651,202.258 269.37,200.305 C270.073,198.368 272.222,197.368 274.159,198.063 L308.667,210.633 C310.612,211.352 311.628,213.5 310.901,215.438 C310.354,216.969 308.933,217.907 307.409,217.907 C306.979,217.907 306.542,217.836 306.12,217.672" fill="#373634"/>
    <path d="M24.464,159.383 C24.589,216.227 87.308,252.93 166.761,252.977 C246.206,252.93 308.948,216.227 309.081,159.383 C308.948,102.227 245.573,44.297 166.761,44.188 C87.948,44.297 24.589,102.227 24.464,159.383 z M19.441,159.383 C19.636,98.5 85.604,39.25 166.761,39.188 C247.917,39.25 313.917,98.5 314.104,159.383 C313.87,220.618 247.276,257.868 166.761,257.977 C86.229,257.868 19.652,220.618 19.441,159.383" fill="#373634"/>
    <path d="M176.151,275.915 C176.151,282.54 170.776,287.922 164.151,287.922 C157.526,287.922 152.144,282.54 152.144,275.915 C152.144,269.29 157.526,263.915 164.151,263.915 C170.776,263.915 176.151,269.29 176.151,275.915 z" fill="url(#Gradient_8)"/>
    <path d="M154.628,275.915 C154.644,281.165 158.894,285.415 164.151,285.415 C169.37,285.415 173.628,281.165 173.651,275.915 C173.628,270.665 169.37,266.415 164.151,266.415 C158.894,266.415 154.644,270.665 154.628,275.915 z M149.628,275.915 C149.628,267.899 156.128,261.415 164.151,261.415 C172.167,261.415 178.636,267.899 178.636,275.915 C178.636,283.922 172.167,290.407 164.151,290.407 C156.128,290.407 149.628,283.922 149.628,275.915" fill="#373634"/>
    <path d="M184.722,42.743 C182.136,42.618 169.394,41.696 166.776,41.696 C162.229,41.696 157.761,41.938 153.315,42.305 C153.433,42.766 168.706,111.321 169.862,138.758 C171.003,106.75 184.683,42.899 184.722,42.743" fill="#373634"/>
    <path d="M235.019,55.883 C230.761,54.329 218.894,50.235 214.448,49.024 C211.87,58.454 208.448,78.165 201.581,112.461 C219.573,70.461 228.737,60.461 235.019,55.883" fill="#373634"/>
    <path d="M95.558,58.743 C114.987,74.75 127.589,91.883 140.144,110.18 C133.292,89.61 116.979,56.336 116.511,49.813 C112.729,51.032 94.175,57.61 95.558,58.743" fill="#373634"/>
    <path d="M22.417,152.54 C22.214,154.829 21.964,157.102 21.964,159.391 C21.964,162.868 22.214,166.243 22.652,169.571 C34.808,164 47.675,159.485 60.925,160.5 C51.573,158.704 35.605,152.797 22.417,152.54" fill="#373634"/>
    <path d="M310.464,171.93 C311.151,167.868 312.745,154.493 312.745,150.188 C312.745,148.508 282.073,153.336 272.573,158.18 C289.089,158.938 299.886,164.743 310.464,171.93" fill="#373634"/>
  </g>
</svg>
